<mxfile host="app.diagrams.net" agent="Mozilla/5.0 (Macintosh; Intel Mac OS X 10_15_7) AppleWebKit/537.36 (KHTML, like Gecko) Chrome/133.0.0.0 Safari/537.36" version="26.0.12" pages="2">
  <diagram name="Page-1" id="LDNWqZxuFwY1z1zXGcFL">
    <mxGraphModel dx="330" dy="392" grid="1" gridSize="10" guides="1" tooltips="1" connect="1" arrows="1" fold="1" page="1" pageScale="1" pageWidth="850" pageHeight="1100" math="0" shadow="0">
      <root>
        <mxCell id="0" />
        <mxCell id="1" parent="0" />
        <mxCell id="w1LgEsOkjF9c4PSFlq8z-31" style="edgeStyle=orthogonalEdgeStyle;rounded=0;orthogonalLoop=1;jettySize=auto;html=1;entryX=0;entryY=0.5;entryDx=0;entryDy=0;" edge="1" parent="1" source="w1LgEsOkjF9c4PSFlq8z-1" target="w1LgEsOkjF9c4PSFlq8z-17">
          <mxGeometry relative="1" as="geometry" />
        </mxCell>
        <mxCell id="w1LgEsOkjF9c4PSFlq8z-32" style="edgeStyle=orthogonalEdgeStyle;rounded=0;orthogonalLoop=1;jettySize=auto;html=1;entryX=0;entryY=0.5;entryDx=0;entryDy=0;" edge="1" parent="1" source="w1LgEsOkjF9c4PSFlq8z-1" target="w1LgEsOkjF9c4PSFlq8z-17">
          <mxGeometry relative="1" as="geometry" />
        </mxCell>
        <mxCell id="w1LgEsOkjF9c4PSFlq8z-1" value="CNA" style="shape=umlActor;verticalLabelPosition=bottom;verticalAlign=top;html=1;outlineConnect=0;" vertex="1" parent="1">
          <mxGeometry x="30" y="80" width="30" height="60" as="geometry" />
        </mxCell>
        <mxCell id="w1LgEsOkjF9c4PSFlq8z-2" value="Case Manager" style="shape=umlActor;verticalLabelPosition=bottom;verticalAlign=top;html=1;outlineConnect=0;" vertex="1" parent="1">
          <mxGeometry x="520" y="150" width="30" height="60" as="geometry" />
        </mxCell>
        <mxCell id="w1LgEsOkjF9c4PSFlq8z-3" value="Nurse" style="shape=umlActor;verticalLabelPosition=bottom;verticalAlign=top;html=1;outlineConnect=0;" vertex="1" parent="1">
          <mxGeometry x="30" y="250" width="30" height="60" as="geometry" />
        </mxCell>
        <mxCell id="w1LgEsOkjF9c4PSFlq8z-22" value="" style="group" vertex="1" connectable="0" parent="1">
          <mxGeometry x="110" y="30" width="360" height="360" as="geometry" />
        </mxCell>
        <mxCell id="w1LgEsOkjF9c4PSFlq8z-5" value="" style="whiteSpace=wrap;html=1;aspect=fixed;" vertex="1" parent="w1LgEsOkjF9c4PSFlq8z-22">
          <mxGeometry width="360" height="360" as="geometry" />
        </mxCell>
        <mxCell id="w1LgEsOkjF9c4PSFlq8z-8" value="Vital Sign Documentation System" style="text;html=1;align=center;verticalAlign=middle;whiteSpace=wrap;rounded=0;" vertex="1" parent="w1LgEsOkjF9c4PSFlq8z-22">
          <mxGeometry x="65" width="230" height="40" as="geometry" />
        </mxCell>
        <mxCell id="w1LgEsOkjF9c4PSFlq8z-11" value="" style="group" vertex="1" connectable="0" parent="w1LgEsOkjF9c4PSFlq8z-22">
          <mxGeometry x="130" y="50" width="100" height="50" as="geometry" />
        </mxCell>
        <mxCell id="w1LgEsOkjF9c4PSFlq8z-9" value="" style="ellipse;whiteSpace=wrap;html=1;" vertex="1" parent="w1LgEsOkjF9c4PSFlq8z-11">
          <mxGeometry width="100" height="50" as="geometry" />
        </mxCell>
        <mxCell id="w1LgEsOkjF9c4PSFlq8z-10" value="Record Vitals" style="text;html=1;align=center;verticalAlign=middle;whiteSpace=wrap;rounded=0;" vertex="1" parent="w1LgEsOkjF9c4PSFlq8z-11">
          <mxGeometry x="20" y="10" width="60" height="30" as="geometry" />
        </mxCell>
        <mxCell id="w1LgEsOkjF9c4PSFlq8z-12" value="" style="group" vertex="1" connectable="0" parent="w1LgEsOkjF9c4PSFlq8z-22">
          <mxGeometry x="130" y="114" width="100" height="50" as="geometry" />
        </mxCell>
        <mxCell id="w1LgEsOkjF9c4PSFlq8z-13" value="" style="ellipse;whiteSpace=wrap;html=1;" vertex="1" parent="w1LgEsOkjF9c4PSFlq8z-12">
          <mxGeometry width="100" height="50" as="geometry" />
        </mxCell>
        <mxCell id="w1LgEsOkjF9c4PSFlq8z-14" value="View History" style="text;html=1;align=center;verticalAlign=middle;whiteSpace=wrap;rounded=0;" vertex="1" parent="w1LgEsOkjF9c4PSFlq8z-12">
          <mxGeometry x="20" y="10" width="60" height="30" as="geometry" />
        </mxCell>
        <mxCell id="w1LgEsOkjF9c4PSFlq8z-16" value="" style="group" vertex="1" connectable="0" parent="w1LgEsOkjF9c4PSFlq8z-22">
          <mxGeometry x="130" y="190" width="100" height="50" as="geometry" />
        </mxCell>
        <mxCell id="w1LgEsOkjF9c4PSFlq8z-17" value="" style="ellipse;whiteSpace=wrap;html=1;" vertex="1" parent="w1LgEsOkjF9c4PSFlq8z-16">
          <mxGeometry width="100" height="50" as="geometry" />
        </mxCell>
        <mxCell id="w1LgEsOkjF9c4PSFlq8z-18" value="&lt;font style=&quot;font-size: 11px;&quot;&gt;View Health Trend Graphs&lt;/font&gt;" style="text;html=1;align=center;verticalAlign=middle;whiteSpace=wrap;rounded=0;" vertex="1" parent="w1LgEsOkjF9c4PSFlq8z-16">
          <mxGeometry x="10" y="10" width="80" height="30" as="geometry" />
        </mxCell>
        <mxCell id="w1LgEsOkjF9c4PSFlq8z-19" value="" style="group" vertex="1" connectable="0" parent="w1LgEsOkjF9c4PSFlq8z-22">
          <mxGeometry x="130" y="260" width="100" height="50" as="geometry" />
        </mxCell>
        <mxCell id="w1LgEsOkjF9c4PSFlq8z-20" value="" style="ellipse;whiteSpace=wrap;html=1;" vertex="1" parent="w1LgEsOkjF9c4PSFlq8z-19">
          <mxGeometry width="100" height="50" as="geometry" />
        </mxCell>
        <mxCell id="w1LgEsOkjF9c4PSFlq8z-21" value="Oversee Patient&#39;s Case" style="text;html=1;align=center;verticalAlign=middle;whiteSpace=wrap;rounded=0;" vertex="1" parent="w1LgEsOkjF9c4PSFlq8z-19">
          <mxGeometry x="20" y="10" width="60" height="30" as="geometry" />
        </mxCell>
        <mxCell id="w1LgEsOkjF9c4PSFlq8z-26" style="edgeStyle=orthogonalEdgeStyle;rounded=0;orthogonalLoop=1;jettySize=auto;html=1;" edge="1" parent="w1LgEsOkjF9c4PSFlq8z-22">
          <mxGeometry relative="1" as="geometry">
            <mxPoint x="-50" y="74.5" as="sourcePoint" />
            <mxPoint x="130" y="74.5" as="targetPoint" />
          </mxGeometry>
        </mxCell>
        <mxCell id="w1LgEsOkjF9c4PSFlq8z-27" style="edgeStyle=orthogonalEdgeStyle;rounded=0;orthogonalLoop=1;jettySize=auto;html=1;entryX=0.08;entryY=0.78;entryDx=0;entryDy=0;entryPerimeter=0;" edge="1" parent="1" source="w1LgEsOkjF9c4PSFlq8z-3" target="w1LgEsOkjF9c4PSFlq8z-9">
          <mxGeometry relative="1" as="geometry">
            <Array as="points">
              <mxPoint x="200" y="280" />
              <mxPoint x="200" y="119" />
            </Array>
          </mxGeometry>
        </mxCell>
        <mxCell id="w1LgEsOkjF9c4PSFlq8z-29" style="edgeStyle=orthogonalEdgeStyle;rounded=0;orthogonalLoop=1;jettySize=auto;html=1;entryX=0.07;entryY=0.78;entryDx=0;entryDy=0;entryPerimeter=0;" edge="1" parent="1" source="w1LgEsOkjF9c4PSFlq8z-3" target="w1LgEsOkjF9c4PSFlq8z-13">
          <mxGeometry relative="1" as="geometry">
            <Array as="points">
              <mxPoint x="160" y="260" />
              <mxPoint x="160" y="183" />
            </Array>
          </mxGeometry>
        </mxCell>
        <mxCell id="w1LgEsOkjF9c4PSFlq8z-28" style="edgeStyle=orthogonalEdgeStyle;rounded=0;orthogonalLoop=1;jettySize=auto;html=1;entryX=0;entryY=0.5;entryDx=0;entryDy=0;" edge="1" parent="1" source="w1LgEsOkjF9c4PSFlq8z-1" target="w1LgEsOkjF9c4PSFlq8z-13">
          <mxGeometry relative="1" as="geometry" />
        </mxCell>
        <mxCell id="w1LgEsOkjF9c4PSFlq8z-33" style="edgeStyle=orthogonalEdgeStyle;rounded=0;orthogonalLoop=1;jettySize=auto;html=1;entryX=0;entryY=0.5;entryDx=0;entryDy=0;" edge="1" parent="1" source="w1LgEsOkjF9c4PSFlq8z-3" target="w1LgEsOkjF9c4PSFlq8z-17">
          <mxGeometry relative="1" as="geometry">
            <Array as="points">
              <mxPoint x="220" y="300" />
              <mxPoint x="220" y="245" />
            </Array>
          </mxGeometry>
        </mxCell>
        <mxCell id="w1LgEsOkjF9c4PSFlq8z-36" style="edgeStyle=orthogonalEdgeStyle;rounded=0;orthogonalLoop=1;jettySize=auto;html=1;" edge="1" parent="1">
          <mxGeometry relative="1" as="geometry">
            <mxPoint x="280" y="220" as="targetPoint" />
            <mxPoint x="45" y="170" as="sourcePoint" />
            <Array as="points">
              <mxPoint x="45" y="200" />
              <mxPoint x="281" y="200" />
            </Array>
          </mxGeometry>
        </mxCell>
        <mxCell id="w1LgEsOkjF9c4PSFlq8z-37" style="edgeStyle=orthogonalEdgeStyle;rounded=0;orthogonalLoop=1;jettySize=auto;html=1;entryX=1;entryY=0.5;entryDx=0;entryDy=0;" edge="1" parent="1" source="w1LgEsOkjF9c4PSFlq8z-2" target="w1LgEsOkjF9c4PSFlq8z-20">
          <mxGeometry relative="1" as="geometry" />
        </mxCell>
      </root>
    </mxGraphModel>
  </diagram>
  <diagram id="UqTLm0D1EwiUOJkH5ukP" name="Page-2">
    <mxGraphModel dx="330" dy="392" grid="1" gridSize="10" guides="1" tooltips="1" connect="1" arrows="1" fold="1" page="1" pageScale="1" pageWidth="850" pageHeight="1100" math="0" shadow="0">
      <root>
        <mxCell id="0" />
        <mxCell id="1" parent="0" />
      </root>
    </mxGraphModel>
  </diagram>
</mxfile>
